<?xml version="1.0" encoding="utf-8"?>
<!-- Generator: Adobe Illustrator 19.2.1, SVG Export Plug-In . SVG Version: 6.00 Build 0)  -->
<svg version="1.1" id="Layer_1" xmlns="http://www.w3.org/2000/svg" xmlns:xlink="http://www.w3.org/1999/xlink" x="0px" y="0px"
	 viewBox="0 0 635 153.2" style="enable-background:new 0 0 635 153.2;" xml:space="preserve">
<style type="text/css">
	.st0{fill:#FFFFFF;}
	.st1{opacity:0.5;}
</style>
<g>
	<path class="st0" d="M25.4,21.4h-25V1H72v20.4H47v130.6H25.4V21.4z"/>
	<path class="st0" d="M102.5,1h18l33.7,150.9h-21.6l-6.4-32.4H96.8l-6.4,32.4H68.8L102.5,1z M111.7,44.5h-0.4l-10.6,54.7h21.6
		L111.7,44.5z"/>
	<path class="st0" d="M169.3,1h32.4c5.9,0,11.2,0.8,15.7,2.3c4.5,1.6,8.6,4.3,12.3,8.3c3.7,4,6.2,8.6,7.6,13.9
		c1.4,5.3,2.1,12.5,2.1,21.5c0,6.6-0.4,12.3-1.2,17.1c-0.8,4.7-2.4,9.2-5,13.2c-3,4.9-6.9,8.8-11.9,11.6C216.5,91.6,210,93,202,93
		h-11v58.9h-21.6V1z M190.9,72.7h10.4c4.4,0,7.8-0.6,10.2-1.9c2.4-1.3,4.2-3,5.3-5.2c1.1-2.2,1.8-4.8,2-7.9
		c0.2-3.1,0.3-6.6,0.3-10.4c0-3.5-0.1-6.9-0.3-10.1c-0.2-3.2-0.8-5.9-1.9-8.3s-2.7-4.2-5-5.5c-2.3-1.3-5.5-2-9.8-2h-11.2V72.7z"/>
</g>
<g>
	<path class="st0" d="M431.9,118.2c0,4.7-0.9,9.1-2.6,13.4c-1.8,4.2-4.2,7.9-7.3,11.1c-3.1,3.2-6.8,5.7-10.9,7.6
		c-4.2,1.9-8.7,2.9-13.5,2.9c-4.1,0-8.3-0.6-12.5-1.7c-4.2-1.1-8.1-3.1-11.4-5.8c-3.4-2.8-6.2-6.4-8.4-10.9
		c-2.2-4.5-3.3-10.2-3.3-17.2V34.5c0-4.9,0.8-9.5,2.5-13.8c1.7-4.2,4.1-7.9,7.2-11c3.1-3.1,6.8-5.5,11.1-7.3
		c4.3-1.8,9.1-2.6,14.3-2.6c4.9,0,9.5,0.9,13.8,2.6c4.2,1.8,7.9,4.2,11,7.4c3.1,3.2,5.5,7,7.3,11.4c1.8,4.5,2.6,9.3,2.6,14.5v8.5
		h-21.6V37c0-4.2-1.2-7.9-3.6-11c-2.4-3.1-5.7-4.7-9.8-4.7c-5.4,0-8.9,1.7-10.7,5c-1.8,3.3-2.7,7.5-2.7,12.6v77.2
		c0,4.4,1,8.1,2.9,11c1.9,3,5.3,4.5,10.3,4.5c1.4,0,2.9-0.2,4.6-0.7c1.6-0.5,3.1-1.3,4.5-2.4c1.3-1.1,2.4-2.7,3.3-4.7
		c0.8-2,1.3-4.5,1.3-7.4v-7.4h21.6V118.2z"/>
	<path class="st0" d="M441,1h20.8l27.8,79.9h0.4L517.5,1h21v150.9h-21.6V60.1h-0.4L495,125h-10.8L463,60.1h-0.4v91.8H441V1z"/>
	<path class="st0" d="M582.8,1h18l33.7,150.9h-21.6l-6.4-32.4h-29.5l-6.4,32.4h-21.6L582.8,1z M591.9,44.5h-0.4l-10.6,54.7h21.6
		L591.9,44.5z"/>
</g>
<g class="st1">
	<path class="st0" d="M262.1,148.8v-11.9h80.6v11.9H262.1z"/>
	<path class="st0" d="M262.1,127.2v-11.4l48.6-18v-0.2h-48.6V85.6h80.6v11.2L294.2,115v0.2h48.5v11.9H262.1z"/>
	<path class="st0" d="M272.9,67.4v13.8h-10.9V41.7h10.9v13.8h69.7v11.9H272.9z"/>
	<path class="st0" d="M281.1,39.9c-3.2,0-6.1-0.6-8.6-1.8c-2.5-1.2-4.5-2.7-6.2-4.6c-1.6-1.9-2.8-4-3.7-6.4
		c-0.8-2.4-1.2-4.8-1.2-7.2c0-2.4,0.4-4.8,1.2-7.2c0.8-2.4,2.1-4.5,3.7-6.4c1.6-1.9,3.7-3.4,6.2-4.6c2.5-1.2,5.4-1.8,8.6-1.8l42.6,0
		c3.3,0,6.2,0.6,8.7,1.8c2.5,1.2,4.5,2.7,6.1,4.6c1.6,1.9,2.8,4,3.7,6.4c0.8,2.4,1.2,4.8,1.2,7.2c0,2.4-0.4,4.8-1.2,7.2
		c-0.8,2.4-2.1,4.5-3.7,6.4c-1.6,1.9-3.7,3.4-6.1,4.6c-2.5,1.2-5.3,1.8-8.7,1.8H281.1z M323.6,28c2.8,0,4.9-0.8,6.2-2.4
		c1.3-1.6,2-3.5,2-5.7c0-2.2-0.7-4.1-2-5.7c-1.3-1.6-3.4-2.4-6.2-2.4h-42.6c-2.8,0-4.8,0.8-6.2,2.4c-1.3,1.6-2,3.5-2,5.7
		c0,2.2,0.7,4.1,2,5.7c1.3,1.6,3.4,2.4,6.2,2.4H323.6z"/>
</g>
</svg>
